Coordinates
version=1
nRows=14
nColumns=40
inDegrees=yes

Units are S.I. units (second, meters, Newtons, ...)
Angles are in degrees.

endheader
time	pelvis_tilt	pelvis_list	pelvis_rotation	pelvis_tx	pelvis_ty	pelvis_tz	hip_flexion_r	hip_adduction_r	hip_rotation_r	knee_angle_r	knee_angle_r_beta	ankle_angle_r	subtalar_angle_r	mtp_angle_r	hip_flexion_l	hip_adduction_l	hip_rotation_l	knee_angle_l	knee_angle_l_beta	ankle_angle_l	subtalar_angle_l	mtp_angle_l	lumbar_extension	lumbar_bending	lumbar_rotation	arm_flex_r	arm_add_r	arm_rot_r	elbow_flex_r	pro_sup_r	wrist_flex_r	wrist_dev_r	arm_flex_l	arm_add_l	arm_rot_l	elbow_flex_l	pro_sup_l	wrist_flex_l	wrist_dev_l
      1.95000000	     -3.02378620	      0.75802081	      0.18133977	      0.15349892	      0.88418139	     -1.46316173	     14.21600763	     -4.70327498	     -7.16432494	    -65.07873902	     -1.13583827	    -12.02907665	    -16.83358515	     14.39480039	     20.46364814	     -2.38735021	      9.27367396	    -31.81029179	     -0.55519433	     10.33096213	     10.39650138	      3.66473903	     -0.87037266	     -3.09472902	     -1.78113081	      0.24311721	     -9.07279118	     -8.87894249	     32.70721438	     89.95437384	      0.00000000	      0.00000000	     -2.39320941	     10.11016011	     16.02021837	     26.83842718	     89.95437384	      0.00000000	      0.00000000
      1.96000000	     -2.87708717	      0.69376625	      0.61205121	      0.16293998	      0.88509789	     -1.46459625	     15.51622001	     -4.70346380	     -7.38530989	    -65.77719941	     -1.14802870	    -10.25441670	    -17.36264512	     14.62887122	     19.43357091	     -2.51678672	      9.01333792	    -31.46636881	     -0.54919174	     10.63961997	     10.00426327	      3.49910365	     -1.15969426	     -3.00726520	     -2.50438244	      0.28181089	     -8.98973381	     -8.96848353	     31.74687295	     89.95437384	      0.00000000	      0.00000000	     -1.85684968	     10.41110218	     15.94692313	     27.75894743	     89.95437384	      0.00000000	      0.00000000
      1.97000000	     -2.75762332	      0.56158080	      0.98624931	      0.17228182	      0.88597485	     -1.46586156	     16.79444585	     -4.61965842	     -7.65723466	    -66.16886863	     -1.15486462	     -8.53036692	    -17.53514574	     14.66496754	     18.43389739	     -2.51847442	      8.83043093	    -31.11708374	     -0.54309556	     10.96547841	      9.64233804	      3.34545455	     -1.41309280	     -2.84802975	     -3.04249466	      0.18585379	     -8.94073900	     -9.12263037	     30.89129814	     89.95437384	      0.00000000	      0.00000000	     -1.18473969	     10.67688718	     15.89095184	     28.59554462	     89.95437384	      0.00000000	      0.00000000
      1.98000000	     -2.62637514	      0.46131468	      1.45777286	      0.18169378	      0.88680311	     -1.46709445	     17.94919220	     -4.53823380	     -7.95033658	    -66.24785727	     -1.15624323	     -6.45687070	    -17.59782132	     14.72412696	     17.40726822	     -2.55508791	      8.52080449	    -30.76085654	     -0.53687823	     11.33134038	      9.17993651	      3.15874090	     -1.64980323	     -2.74611685	     -3.74450469	      0.12899966	     -8.79523307	     -9.44553171	     30.01115716	     89.95437384	      0.00000000	      0.00000000	     -0.60714906	     10.98236888	     15.84414538	     29.53389356	     89.95437384	      0.00000000	      0.00000000
      1.99000000	     -2.09558677	      0.36487340	      1.97844772	      0.19132084	      0.88817593	     -1.46849940	     18.54628090	     -4.55844560	     -8.47076689	    -66.04226381	     -1.15265495	     -3.92884221	    -16.99479061	     19.44258158	     15.86808776	     -2.55091926	      8.38460584	    -30.24846631	     -0.52793533	     11.45484208	      8.71825291	      2.24148942	     -2.32319660	     -2.62036976	     -4.57498202	      0.16046821	     -8.68288953	     -9.75378720	     29.20875376	     89.95437384	      0.00000000	      0.00000000	     -0.13335917	     11.29750705	     15.84858885	     30.69694140	     89.95437384	      0.00000000	      0.00000000
      2.00000000	     -2.14066337	      0.21533914	      2.33175755	      0.20039448	      0.88851218	     -1.46956353	     19.92915744	     -4.43659457	     -8.74529120	    -65.69050658	     -1.14651563	     -2.93043908	    -17.06195701	     19.14595846	     15.12871612	     -2.42132657	      8.41319805	    -30.01318960	     -0.52382898	     11.71142783	      8.43792928	      2.13397641	     -2.32286891	     -2.43765629	     -5.04230094	     -0.12846295	     -8.67808744	     -9.88973362	     28.59709520	     89.95437384	      0.00000000	      0.00000000	      0.59238221	     11.55429903	     15.82028274	     31.42655696	     89.95437384	      0.00000000	      0.00000000
      2.01000000	     -2.02419954	      0.03178758	      2.82774149	      0.20939632	      0.88899076	     -1.47065405	     20.96051187	     -4.23503815	     -9.07950433	    -64.95915207	     -1.13375108	     -1.25619845	    -16.99833008	     18.92155602	     14.28099625	     -2.31274540	      8.03668059	    -29.88402880	     -0.52157470	     12.09118384	      7.83136798	      1.89979242	     -2.56821905	     -2.24697244	     -5.74844319	     -0.15275169	     -8.49389456	    -10.52418272	     27.72953842	     89.95437384	      0.00000000	      0.00000000	      1.09778436	     11.84178747	     15.92098323	     32.63098321	     89.95437384	      0.00000000	      0.00000000
      2.02000000	     -2.04074851	     -0.06199733	      3.18337753	      0.21862307	      0.88917852	     -1.47167948	     22.12572955	     -4.20257453	     -9.47330589	    -64.06399579	     -1.11812766	     -0.55195171	    -16.85268402	     18.68494422	     13.53473424	     -2.22471780	      8.10112714	    -29.69025425	     -0.51819269	     12.33454711	      7.55621745	      1.77770116	     -2.60664951	     -2.13458744	     -6.15662029	     -0.54083941	     -8.47632166	    -10.83748698	     27.24826369	     89.95437384	      0.00000000	      0.00000000	      1.76483517	     12.08371808	     15.93848816	     33.51352479	     89.95437384	      0.00000000	      0.00000000
      2.03000000	     -1.63554323	     -0.31027770	      3.80883999	      0.22762093	      0.88990782	     -1.47272207	     22.62188439	     -3.96018135	    -10.04933607	    -62.68973669	     -1.09414231	      0.54575658	    -16.74686627	     18.73141484	     12.38765448	     -1.98847379	      7.62215991	    -29.57110211	     -0.51611310	     12.65391619	      6.81349785	      1.47067004	     -3.20957946	     -1.84537813	     -6.89674536	     -0.56916761	     -8.23726938	    -11.90276115	     26.48986692	     89.95437384	      0.00000000	      0.00000000	      2.32177359	     12.37616349	     16.01324066	     34.84098069	     89.95437384	      0.00000000	      0.00000000
      2.04000000	     -1.43565279	     -0.37569530	      4.07883118	      0.23700135	      0.89024676	     -1.47344446	     23.34838454	     -3.81965735	    -10.26595761	    -61.17063396	     -1.06762897	      1.35129923	    -16.66254120	     18.68460493	     11.34071589	     -1.87386784	      7.64041028	    -29.30605345	     -0.51148712	     12.86883150	      6.37779940	      1.23074449	     -3.46789701	     -1.76707792	     -7.23614371	     -0.84105363	     -8.18642303	    -12.28839342	     25.85097293	     89.95437384	      0.00000000	      0.00000000	      2.88963653	     12.60180209	     16.12767281	     35.92382284	     89.95437384	      0.00000000	      0.00000000
      2.05000000	     -1.61723309	     -0.25931298	      4.35727673	      0.24606061	      0.88983533	     -1.47436870	     24.53617661	     -4.02653994	    -10.54145054	    -59.58448830	     -1.03994550	      1.93184895	    -16.20778502	     18.21707208	     10.79798842	     -1.96433650	      7.89464799	    -29.15773359	     -0.50889845	     12.95548999	      6.09003204	      1.12107532	     -3.34738353	     -1.89169316	     -7.47598147	     -1.37038036	     -8.22521593	    -12.45270521	     25.59594348	     89.95437384	      0.00000000	      0.00000000	      3.56303340	     12.80945224	     16.09960247	     36.82268000	     89.95437384	      0.00000000	      0.00000000
      2.06000000	     -0.85999019	     -0.51125432	      4.82811016	      0.25563660	      0.89095198	     -1.47496560	     24.27482645	     -3.60694428	    -11.07263151	    -57.31742865	     -1.00037785	      2.89315655	    -16.40036437	     18.39042467	      9.02178151	     -1.56049490	      7.76309894	    -28.61775335	     -0.49947402	     13.19487857	      5.25314762	      0.64269993	     -4.26416241	     -1.56518356	     -8.01217893	     -1.38180971	     -8.02332472	    -13.53594543	     24.78669178	     89.95437384	      0.00000000	      0.00000000	      4.07496678	     13.06083992	     16.19747249	     38.17710449	     89.95437384	      0.00000000	      0.00000000
      2.07000000	     -0.77358526	     -0.50330593	      5.05704272	      0.26460819	      0.89082954	     -1.47560460	     24.88953971	     -3.51086132	    -11.24909526	    -55.09505562	     -0.96159012	      3.51487665	    -16.23059710	     18.27939611	      8.10750486	     -1.52385871	      7.77811069	    -28.30074141	     -0.49394112	     13.41010815	      4.63647907	      0.30049555	     -4.50283489	     -1.52704971	     -8.16360356	     -1.71803481	     -8.02576950	    -14.01704533	     24.32976417	     89.95437384	      0.00000000	      0.00000000	      4.69342542	     13.24704332	     16.16509711	     39.34990338	     89.95437384	      0.00000000	      0.00000000
      2.08000000	     -1.07041648	     -0.25685974	      5.34118951	      0.27375340	      0.88998371	     -1.47610311	     25.92305175	     -3.80287976	    -11.52525169	    -52.94468485	     -0.92405907	      3.88171564	    -15.76839576	     17.93498179	      7.66072663	     -1.69667661	      8.14298628	    -28.14001292	     -0.49113588	     13.55387437	      4.42435004	      0.19660193	     -4.20647691	     -1.85812100	     -8.41115783	     -2.29478272	     -7.99739465	    -14.04656804	     24.09904837	     89.95437384	      0.00000000	      0.00000000	      5.31154400	     13.47811063	     16.16066815	     40.17444764	     89.95437384	      0.00000000	      0.00000000
